<svg xmlns="http://www.w3.org/2000/svg" xmlns:xlink="http://www.w3.org/1999/xlink" viewBox="0 0 1542 390"><defs><style>.a{clip-path:url(#b);}.b{fill:#d60e5b;}.c{fill:#707070;font-size:300px;font-family:SFProDisplay-Heavy, SF Pro Display;font-weight:800;}.d{fill:#fff;}</style><clipPath id="b"><rect width="1542" height="390"/></clipPath></defs><g id="a" class="a"><rect class="d" width="1542" height="390"/><path d="M407.8,326.246,236.424,29.411c-6.549-11.344-15.7-17.591-25.758-17.591S191.458,18.067,184.9,29.411L13.53,326.246c-6.549,11.344-7.384,22.386-2.355,31.1s15.013,13.51,28.112,13.51H382.032c13.1,0,23.083-4.8,28.118-13.51S414.351,337.59,407.8,326.246ZM210.666,30.171c3.132,0,6.818,3.149,9.87,8.418L391.908,335.424c3.04,5.269,3.926,10.041,2.349,12.75-1.56,2.715-6.132,4.332-12.225,4.332H39.294c-6.081,0-10.659-1.617-12.225-4.338s-.686-7.481,2.355-12.745L200.8,38.589C203.842,33.32,207.528,30.171,210.666,30.171Z" transform="translate(1.385 -11.82)"/><path class="b" d="M77.111,227.05a172.735,172.735,0,0,1-16.3-46.343,216.912,216.912,0,0,0,20.06,29.5c-4.583-18.888,16.288-76.525,16.288-76.525,13.419,14.882,13.47,63.517,13.47,63.517,12.265-9.093,20.071-19.517,24.563-30.627-.531,41.389-21.706,62.014-21.706,62.014,90.407-29.181,28.564-137.253,28.564-137.253s-4.252,4.075-6.727,18.02c-12.362-41.423-44.16-77.531-44.16-77.531,4.583,14.876-9.156,57.219-18.311,73.244-6,10.5-12.722,20.037-16.814,30.981-.451-26.089,2.995-44.715,2.995-44.715C-11.77,187.8,77.111,227.05,77.111,227.05Z" transform="translate(113.251 82.495)"/><path d="M49.911,90.771c29.564-2.28,34.565-29.187,34.565-29.187-12.322.326-20.614,5.441-22.22,12.47C60.632,81.1,49.911,90.771,49.911,90.771Z" transform="translate(199.334 222.821)"/><path d="M65.615,91.37C36.051,89.09,31.05,62.183,31.05,62.183c12.322.331,20.614,5.441,22.226,12.47S65.615,91.37,65.615,91.37Z" transform="translate(110.403 225.645)"/><text class="c" transform="translate(445 310)"><tspan x="0" y="0">Firebug</tspan></text></g></svg>